<?xml version="1.0" encoding="utf-8" ?>
<svg xmlns="http://www.w3.org/2000/svg" xmlns:xlink="http://www.w3.org/1999/xlink" width="512" height="512">
	<path fill="#00B2F4" d="M362.84 398.528C369.572 400.433 376.171 402.983 382.717 405.435L403.5 413.722C411.965 417.554 429.1 426.049 436.618 431.868L423.476 444.477C397.145 467.799 374.841 480.985 342.438 492.639C322.392 499.678 310.454 501.939 289.959 503.451C286.295 503.721 282.841 504.288 279.139 504.292C317.211 486.531 338.708 459.351 355.083 420.548C358.128 413.333 361.313 406.239 362.84 398.528Z"/>
	<path fill="#00B2F4" d="M276.301 6.625L278.882 6.69055C337.024 8.3526 397.865 39.4607 437.416 81.3583L414.966 93.0225L362.655 114.534C349.511 76.0849 336.146 46.456 303.375 21.2506C293.946 13.9982 287.316 10.2857 275.875 6.89734L276.301 6.625Z"/>
	<path fill="#00B2F4" d="M256.838 384.281C284.792 383.26 313.835 387.045 341.103 392.992C347.625 394.414 354.307 395.755 360.672 397.775C354.639 421.65 339.076 451.844 322.707 469.979L318.604 474.358C307.964 485.047 296.008 493.982 282.615 500.899C272.605 506.068 268.436 506.418 256.636 506.444C257.206 501.025 256.934 495.384 256.938 489.938L256.838 384.281Z"/>
	<path fill="#00B2F4" d="M256.01 6.21989C261.584 6.21778 267.41 5.98251 272.875 7.25424C293.046 11.9481 313.991 30.5478 326.728 46.4472C335.912 57.9117 343.819 72.0294 349.725 85.4385C354.023 95.1962 356.66 105.535 360.752 115.324C357.137 116.917 353.112 117.966 349.302 118.986C325.72 125.096 300.813 128.456 276.466 129.387L256.922 129.496L256.01 6.21989Z"/>
	<path fill="#00B2F4" d="M360.808 117.875C361.276 117.753 361.417 117.749 361.875 117.806C364.435 126.109 365.656 134.827 367.182 143.356C370.126 159.798 372.415 176.293 373.696 192.958L375.837 226.5L375.954 255.805C374.697 256.316 371.918 256.029 370.5 256.033L322.59 256.04C321.131 255.974 319.715 255.727 318.289 255.425C319.69 248.296 323.414 241.842 324.312 234.534C325.231 227.053 323.831 219.408 322.113 212.152C312.664 180.927 289.356 163.866 257.063 158.888C256.768 158.188 256.905 157.247 256.907 156.48L256.859 151.156C256.812 149.126 256.446 147.143 256.386 145.125L256.401 131.837L289.284 130.395C313.406 128.659 337.725 125.345 360.808 117.875Z"/>
	<path fill="#00B2F4" d="M150.053 117.854L167.285 122.733L203.625 128.928L232.517 131.594C239.788 132.144 247.17 131.36 254.42 132.21L254.356 158.436C253.858 158.809 252.896 158.795 252.262 158.882L246.68 159.795C219.245 164.974 197.312 185.803 189.119 212.308C185.493 226.846 185.65 233.145 189.973 246.824L191.669 251.792C192.052 253.084 192.169 254.058 192.886 255.252L134.097 255.988C134.227 209.673 137.062 162.555 150.053 117.854Z"/>
	<path fill="#00B2F4" d="M336.913 258.145L375.968 258.207L375.801 284.129L373.732 313.763C371.69 341.038 368.097 368.533 361.323 395.065C357.185 393.473 352.479 392.836 348.143 391.918L306.483 385.028L257.073 382.133L256.886 353.66C256.881 348.627 258.506 347.841 261.385 343.803L296.439 292.484L311.43 266.252C316.223 258.05 313.699 258.195 323.207 258.167L336.913 258.145Z"/>
	<path fill="#00B2F4" d="M193.217 257.965L193.857 257.831C195.114 258.523 195.659 260.545 196.313 261.752L217.715 297.274L240.349 331.435L251.349 346.065C255.107 351.158 253.986 354.992 253.974 361.085L254.013 382.018L186.561 387.086C174.451 389.025 161.801 390.731 150.131 394.599C147.569 386.077 145.831 377.569 144.074 368.861L141.539 356.697C138.098 336.856 136.263 316.975 135.235 296.888L133.939 258.158L193.217 257.965Z"/>
	<path fill="#00B2F4" d="M231.387 384.547L253.975 384.502L254.437 506.244C241.609 504.335 228.643 504.966 215.806 503.314C181.11 498.849 151.793 488.455 122.482 470.02C108.123 460.99 93.7141 451.339 82.1718 438.761L77.866 434.27C76.8994 433.338 75.4476 432.262 74.764 431.125L75.1841 430.651C76.807 429.183 79.7346 428.067 81.663 426.958C92.7818 420.566 104.517 414.895 116.388 410.041L136.2 402.486C136.841 402.029 138.29 401.718 139.064 401.444L148.352 398.305C160.516 435.908 184.126 478.634 220.203 498.34C223.639 500.217 231.182 504.126 234.875 503.682C232.901 502.156 230.14 501.323 227.861 500.327C192.573 484.912 165.9 442.962 154.648 407.8C153.561 404.403 152.816 400.687 151.488 397.394L151.391 397.161C159.152 391.982 219.68 385.111 231.387 384.547Z"/>
	<path fill="#00B2F4" d="M225.165 11.1394C215.741 14.2116 201.441 25.5852 194.598 32.3652C178.517 48.297 160.993 77.391 153.858 98.107L148.955 114.563L122.541 105.481L101.018 96.2114C90.2373 91.127 83.8563 87.1366 74.1333 81.1122C74.8083 79.9625 76.3004 78.7922 77.2716 77.8487L85.3648 70.2392C119.462 38.8222 162.958 16.7819 208.875 9.50257L225.164 7.74597C228.016 7.49291 230.857 6.94767 233.717 6.8191L243.862 6.83684C247.321 6.75438 250.702 6.16116 254.178 6.2588L253.91 129.531L232.417 129.413L213.799 127.836C193.117 125.894 170.801 123.417 151.389 115.544C152.392 108.607 155.027 101.382 157.602 94.873C169.606 64.5177 194.542 25.7222 226.392 12.7066L240.97 7.55398C237.921 6.55853 227.803 9.74194 225.165 11.1394Z"/>
	<path fill="red" d="M251.747 161.601C254.716 161.285 257.847 161.484 260.812 161.787C301.258 165.921 332.955 208.447 318.979 247.709C316.166 255.613 311.608 262.639 307.474 269.878L279.168 314.832C272.385 324.837 265.69 334.652 258.064 344.049C257.142 345.201 256.224 346.091 255.062 346.999C251.332 342.376 248.084 337.231 244.593 332.414C230.522 313 191.932 259.502 189.648 235.084C186.22 198.42 215.404 164.918 251.747 161.601Z"/>
	<path fill="white" d="M253.234 198.346C288.428 193.901 296.862 251.163 258.053 254.34L257.933 254.36C242.988 255.721 229.946 245.499 227.924 230.5L227.86 230.047C225.832 214.123 237.621 200.312 253.234 198.346Z"/>
	<path fill="#00B2F4" d="M253.317 202.09C257.915 201.842 262.541 202.679 266.655 204.773C282.659 212.918 284.822 246.322 258.561 249.461C224.014 252.477 225.905 205.375 253.317 202.09Z"/>
	<path fill="#00B2F4" d="M10.3023 258.047L131.99 258.184C132.47 262.92 132.13 267.988 132.141 272.759L132.7 296.5L134.891 325.284C136.344 339.463 138.704 353.602 141.525 367.565L147.833 395.327L119.754 406.245L72.5317 429.476L57.7474 412.315C28.6855 374.516 9.3473 328.712 5.5378 280.957L4.79067 264.323C4.76551 262.186 4.56944 259.898 4.84837 257.78L9.52493 257.728C9.82472 257.759 10.0475 257.903 10.3023 258.047Z"/>
	<path fill="#00B2F4" d="M72.7149 82.2265C76.0347 84.0254 78.9532 86.5572 82.236 88.4462C92.857 94.5581 103.899 100.033 115.167 104.846L135.698 112.587C139.719 113.948 143.78 114.977 147.652 116.758C140.238 141.833 136.402 168.661 134.311 194.635L132.657 220.971L131.844 256.053L79.375 256.051L4.98823 256.01C4.88586 255.596 4.83609 255.259 4.83182 254.829L4.95169 240.235C7.73559 190.069 26.4087 141.688 56.7802 101.75L67.3191 88.5936C69.1047 86.4589 70.7662 84.2186 72.7149 82.2265Z"/>
	<path fill="#00B2F4" d="M378.294 258.026L506.993 258.12C506.118 310.706 493.506 355.69 463.299 399.749L448.343 419.12C445.258 422.778 442.027 426.671 438.339 429.722L411.185 415.243C401.504 410.492 391.624 406.764 381.571 402.907L363.782 396.113C363.62 395.51 363.901 394.679 364.013 394.066L371.124 357.616C373.937 339.395 375.673 321.045 376.754 302.652L377.658 289.172L378.294 258.026Z"/>
	<path fill="#00B2F4" d="M438.799 82.375C440.183 82.4712 441.91 85.5662 442.766 86.6026L448.956 93.79C475.683 124.683 495.34 166.423 502.673 206.524L505.25 224.435C505.748 228.565 506.358 232.722 506.565 236.88L506.982 255.901L432.594 256.052L397.477 256.032C391.259 256.023 384.712 256.45 378.55 255.784C378.07 251.789 378.323 247.517 378.264 243.485L375.315 184.375L373.331 168.687C371.079 151.091 368.261 133.658 363.855 116.46L382.091 109.697C396.957 104.008 423.864 93.2223 436.868 83.6487L438.799 82.375Z"/>
</svg>
